<svg width="117" height="117" viewBox="0 0 117 117" fill="none" xmlns="http://www.w3.org/2000/svg">
<circle cx="58.5" cy="58.5" r="58.5" fill="#FFD60A"/>
<path d="M59.0847 33.2998C58.771 33.2998 58.4574 33.5508 58.2691 33.8644L52.3719 45.2198C52.2464 45.5335 51.9327 45.7845 51.5563 45.7845H42.7104C37.5032 45.7845 33.2998 49.9879 33.2998 55.195V82.8621C33.2998 83.1758 33.5508 83.4267 33.8644 83.4267H82.8621C83.1758 83.4267 83.4267 83.1758 83.4267 82.8621V46.4118C83.4267 46.0354 83.1758 45.8472 82.8621 45.8472H77.7804C77.4667 45.8472 77.153 45.5963 76.9648 45.2826L71.0675 33.9272C70.8793 33.6135 70.6283 33.3625 70.2519 33.3625H58.8965L59.0847 33.2998ZM42.8358 52.1209C44.5925 52.1209 45.9727 53.5011 45.9727 55.2578C45.9727 57.0144 44.5925 58.3946 42.8358 58.3946C41.0792 58.3946 39.699 57.0144 39.699 55.2578C39.699 53.5011 41.0792 52.1209 42.8358 52.1209ZM64.7938 52.1209C71.6949 52.1209 77.3412 57.7673 77.3412 64.6683C77.3412 71.5694 71.6949 77.2157 64.7938 77.2157C57.8927 77.2157 52.2464 71.5694 52.2464 64.6683C52.2464 57.7673 57.8927 52.1209 64.7938 52.1209ZM64.7938 58.3946C61.3433 58.3946 58.5201 61.2178 58.5201 64.6683C58.5201 68.1189 61.3433 70.942 64.7938 70.942C68.2443 70.942 71.0675 68.1189 71.0675 64.6683C71.0675 61.2178 68.2443 58.3946 64.7938 58.3946Z" fill="white"/>
</svg>
