<svg width="100" height="22" viewBox="0 0 100 22" fill="none" xmlns="http://www.w3.org/2000/svg">
<path d="M1.296 17C1.184 17 1.096 16.968 1.032 16.904C0.968 16.84 0.936 16.752 0.936 16.64V0.559999C0.936 0.447999 0.968 0.359999 1.032 0.295999C1.096 0.231999 1.184 0.199999 1.296 0.199999H7.464C8.76 0.199999 9.904 0.423999 10.896 0.871999C11.904 1.32 12.68 1.952 13.224 2.768C13.768 3.584 14.04 4.528 14.04 5.6V11.6C14.04 12.672 13.768 13.616 13.224 14.432C12.68 15.248 11.904 15.88 10.896 16.328C9.904 16.776 8.76 17 7.464 17H1.296ZM5.448 13.016C5.448 13.096 5.488 13.136 5.568 13.136H7.632C8.176 13.136 8.624 12.928 8.976 12.512C9.328 12.08 9.512 11.52 9.528 10.832V6.368C9.528 5.68 9.352 5.128 9 4.712C8.648 4.28 8.184 4.064 7.608 4.064H5.568C5.488 4.064 5.448 4.104 5.448 4.184V13.016ZM21.5319 17.192C20.0119 17.192 18.7239 16.784 17.6679 15.968C16.6279 15.152 15.9399 14.048 15.6039 12.656C15.4439 12.08 15.3639 11.44 15.3639 10.736C15.3639 9.952 15.4599 9.24 15.6519 8.6C16.0359 7.272 16.7399 6.232 17.7639 5.48C18.8039 4.712 20.0679 4.328 21.5559 4.328C23.0439 4.328 24.2919 4.712 25.2999 5.48C26.3239 6.232 27.0279 7.256 27.4119 8.552C27.6039 9.224 27.6999 9.936 27.6999 10.688C27.6999 11.296 27.6359 11.904 27.5079 12.512C27.1719 13.952 26.4759 15.096 25.4199 15.944C24.3799 16.776 23.0839 17.192 21.5319 17.192ZM21.5319 13.328C21.9479 13.328 22.2839 13.192 22.5399 12.92C22.7959 12.632 22.9719 12.256 23.0679 11.792C23.1319 11.488 23.1639 11.128 23.1639 10.712C23.1639 10.344 23.1239 9.976 23.0439 9.608C22.8039 8.664 22.2999 8.192 21.5319 8.192C20.7319 8.192 20.2279 8.664 20.0199 9.608C19.9399 9.88 19.8999 10.248 19.8999 10.712C19.8999 11.128 19.9319 11.488 19.9959 11.792C20.2359 12.816 20.7479 13.328 21.5319 13.328ZM36.5708 4.88C36.5708 4.768 36.6028 4.68 36.6668 4.616C36.7308 4.552 36.8188 4.52 36.9308 4.52H40.7228C40.8348 4.52 40.9227 4.552 40.9868 4.616C41.0508 4.68 41.0828 4.768 41.0828 4.88V15.368C41.0828 17.656 40.4188 19.28 39.0908 20.24C37.7788 21.216 36.1228 21.704 34.1228 21.704C33.2268 21.704 32.3868 21.632 31.6028 21.488C31.3948 21.44 31.2908 21.304 31.2908 21.08L31.4348 17.84C31.4348 17.568 31.5788 17.472 31.8668 17.552C32.5388 17.728 33.1708 17.816 33.7628 17.816C34.5308 17.816 35.1628 17.656 35.6588 17.336C36.1548 17.016 36.4508 16.528 36.5468 15.872C36.5628 15.808 36.5468 15.768 36.4988 15.752C36.4668 15.736 36.4268 15.752 36.3788 15.8C35.8348 16.312 35.0508 16.568 34.0268 16.568C31.4668 16.568 29.8348 15.528 29.1308 13.448C28.8588 12.648 28.7228 11.712 28.7228 10.64C28.7228 9.456 28.8908 8.448 29.2268 7.616C29.6108 6.608 30.2108 5.808 31.0268 5.216C31.8588 4.624 32.8108 4.328 33.8828 4.328C34.9868 4.328 35.8348 4.664 36.4268 5.336C36.4588 5.368 36.4908 5.384 36.5228 5.384C36.5548 5.368 36.5708 5.336 36.5708 5.288V4.88ZM36.3308 12.272C36.4908 11.856 36.5708 11.304 36.5708 10.616C36.5708 9.976 36.4828 9.456 36.3068 9.056C36.0348 8.48 35.5788 8.192 34.9388 8.192C34.3788 8.192 33.9548 8.472 33.6668 9.032C33.4108 9.48 33.2828 10.032 33.2828 10.688C33.2828 11.328 33.3868 11.848 33.5948 12.248C33.8828 12.808 34.3468 13.088 34.9868 13.088C35.6268 13.088 36.0748 12.816 36.3308 12.272Z" fill="#FE8D2A"/>
<path d="M43.1788 17C43.0668 17 42.9788 16.968 42.9148 16.904C42.8508 16.84 42.8188 16.752 42.8188 16.64V0.559999C42.8188 0.447999 42.8508 0.359999 42.9148 0.295999C42.9788 0.231999 43.0668 0.199999 43.1788 0.199999H49.3468C50.6428 0.199999 51.7868 0.423999 52.7788 0.871999C53.7868 1.32 54.5628 1.952 55.1068 2.768C55.6508 3.584 55.9228 4.528 55.9228 5.6V11.6C55.9228 12.672 55.6508 13.616 55.1068 14.432C54.5628 15.248 53.7868 15.88 52.7788 16.328C51.7868 16.776 50.6428 17 49.3468 17H43.1788ZM47.3308 13.016C47.3308 13.096 47.3708 13.136 47.4508 13.136H49.5148C50.0588 13.136 50.5068 12.928 50.8588 12.512C51.2108 12.08 51.3948 11.52 51.4108 10.832V6.368C51.4108 5.68 51.2348 5.128 50.8828 4.712C50.5308 4.28 50.0668 4.064 49.4908 4.064H47.4508C47.3708 4.064 47.3308 4.104 47.3308 4.184V13.016ZM69.4868 9.872C69.5348 10.224 69.5588 10.584 69.5588 10.952C69.5588 11.208 69.5508 11.408 69.5348 11.552C69.5348 11.776 69.4148 11.888 69.1748 11.888H61.9748C61.9108 11.888 61.8788 11.92 61.8788 11.984C61.8788 12.128 61.9428 12.296 62.0708 12.488C62.2308 12.76 62.5108 12.992 62.9108 13.184C63.3268 13.36 63.7908 13.448 64.3028 13.448C64.7348 13.448 65.1348 13.384 65.5028 13.256C65.8708 13.128 66.1828 12.944 66.4388 12.704C66.5188 12.64 66.5988 12.608 66.6788 12.608C66.7908 12.608 66.8788 12.656 66.9428 12.752L68.7668 15.08C68.8308 15.16 68.8628 15.248 68.8628 15.344C68.8628 15.44 68.8228 15.52 68.7428 15.584C68.1828 16.128 67.4868 16.536 66.6548 16.808C65.8228 17.064 64.9268 17.192 63.9668 17.192C62.4788 17.192 61.2068 16.88 60.1508 16.256C59.0948 15.632 58.3268 14.744 57.8468 13.592C57.4948 12.76 57.3188 11.864 57.3188 10.904C57.3188 9.896 57.4628 9 57.7508 8.216C58.1828 7 58.8947 6.048 59.8867 5.36C60.8788 4.672 62.0468 4.328 63.3908 4.328C64.4148 4.328 65.3588 4.568 66.2228 5.048C67.1028 5.528 67.8228 6.192 68.3828 7.04C68.9588 7.872 69.3268 8.816 69.4868 9.872ZM63.3668 8.192C62.7108 8.192 62.2548 8.512 61.9988 9.152L61.9028 9.416C61.8868 9.464 61.8948 9.504 61.9268 9.536C61.9588 9.552 61.9908 9.56 62.0228 9.56H64.7588C64.8228 9.56 64.8548 9.528 64.8548 9.464C64.8548 9.4 64.8308 9.296 64.7828 9.152C64.7028 8.848 64.5348 8.616 64.2788 8.456C64.0388 8.28 63.7348 8.192 63.3668 8.192ZM77.7609 4.352C78.3049 4.352 78.7369 4.456 79.0569 4.664C79.2009 4.744 79.2569 4.896 79.2249 5.12L78.6489 8.816C78.6329 8.944 78.5849 9.024 78.5049 9.056C78.4409 9.088 78.3449 9.088 78.2169 9.056C77.9289 8.992 77.6729 8.96 77.4489 8.96C77.2089 8.96 76.9849 8.984 76.7769 9.032C76.3609 9.112 76.0009 9.288 75.6969 9.56C75.4089 9.816 75.2649 10.168 75.2649 10.616V16.64C75.2649 16.752 75.2329 16.84 75.1689 16.904C75.1049 16.968 75.0169 17 74.9049 17H71.1129C71.0009 17 70.9129 16.968 70.8489 16.904C70.7849 16.84 70.7529 16.752 70.7529 16.64V4.88C70.7529 4.768 70.7849 4.68 70.8489 4.616C70.9129 4.552 71.0009 4.52 71.1129 4.52H74.9049C75.0169 4.52 75.1049 4.552 75.1689 4.616C75.2329 4.68 75.2649 4.768 75.2649 4.88V5.456C75.2649 5.504 75.2809 5.536 75.3129 5.552C75.3449 5.568 75.3689 5.56 75.3849 5.528C75.9929 4.744 76.7849 4.352 77.7609 4.352ZM95.0286 4.328C96.2926 4.328 97.2766 4.72 97.9806 5.504C98.6846 6.288 99.0366 7.392 99.0366 8.816V16.64C99.0366 16.752 99.0046 16.84 98.9406 16.904C98.8766 16.968 98.7886 17 98.6766 17H94.8846C94.7726 17 94.6846 16.968 94.6206 16.904C94.5566 16.84 94.5246 16.752 94.5246 16.64V9.8C94.5246 9.32 94.4046 8.936 94.1646 8.648C93.9406 8.344 93.6446 8.192 93.2766 8.192C92.8926 8.192 92.5806 8.344 92.3406 8.648C92.1006 8.936 91.9806 9.32 91.9806 9.8V16.64C91.9806 16.752 91.9486 16.84 91.8846 16.904C91.8206 16.968 91.7326 17 91.6206 17H87.8286C87.7166 17 87.6286 16.968 87.5646 16.904C87.5006 16.84 87.4686 16.752 87.4686 16.64V9.8C87.4686 9.32 87.3406 8.936 87.0846 8.648C86.8446 8.344 86.5246 8.192 86.1246 8.192C85.7726 8.192 85.4766 8.304 85.2366 8.528C85.0126 8.736 84.8686 9.024 84.8046 9.392C84.7886 9.424 84.7806 9.472 84.7806 9.536V16.64C84.7806 16.752 84.7486 16.84 84.6846 16.904C84.6206 16.968 84.5326 17 84.4206 17H80.6286C80.5166 17 80.4286 16.968 80.3646 16.904C80.3006 16.84 80.2686 16.752 80.2686 16.64V4.88C80.2686 4.768 80.3006 4.68 80.3646 4.616C80.4286 4.552 80.5166 4.52 80.6286 4.52H84.4206C84.5326 4.52 84.6206 4.552 84.6846 4.616C84.7486 4.68 84.7806 4.768 84.7806 4.88V6.08C84.7806 6.144 84.7966 6.176 84.8286 6.176C84.8606 6.176 84.8926 6.152 84.9246 6.104C85.5326 4.92 86.5566 4.328 87.9966 4.328C88.8126 4.328 89.5246 4.52 90.1326 4.904C90.7566 5.272 91.2286 5.808 91.5486 6.512C91.5966 6.592 91.6446 6.584 91.6926 6.488C92.0126 5.768 92.4526 5.232 93.0126 4.88C93.5886 4.512 94.2606 4.328 95.0286 4.328Z" fill="#112B3C"/>
</svg>
