<svg width="307" height="232" viewBox="0 0 307 232" fill="none" xmlns="http://www.w3.org/2000/svg">
<g clip-path="url(#clip0_122_6262)">
<rect width="307" height="232" fill="#F2F2F2"/>
<mask id="mask0_122_6262" style="mask-type:alpha" maskUnits="userSpaceOnUse" x="0" y="0" width="307" height="232">
<rect width="307" height="232" fill="#C4C4C4"/>
</mask>
<g mask="url(#mask0_122_6262)">
<path d="M28.1787 25L24.2548 4.5L26.4348 -5H-5.39251V124L-1.4686 91.5L7.25121 66.5L28.1787 25Z" fill="white"/>
<path d="M99.2452 -3C99.9455 -2.00541 138.346 28.0811 157.459 43L185.472 38.6486L210.859 -3H99.2452Z" fill="white"/>
<path d="M135.868 125L86.1655 140L96.6292 194L143.716 185L171.62 209L206.499 152L165.516 91L135.868 125Z" fill="white"/>
<path d="M-5.39251 239L46.4903 245.5L56.9541 259.5L69.5978 263.5L73.9577 288.5H90.5254V312.5L84.4215 317.5L95.3213 339L117.993 349L114.069 365L97.9372 355.5L65.6739 400L60.006 388.5L54.3382 390.5L27.3068 384.5L14.2271 355.5L-6.26449 344.5L-5.39251 239Z" fill="white"/>
<path d="M295.877 588L316.804 577L332.5 636.5L317.24 798L226.554 789.5L217.399 749.5L204.319 725.5L209.987 706L227.862 702.5L234.838 722L233.094 740L250.97 747.5L264.921 725.5L267.537 726L273.205 708L269.281 679H280.617L279.745 666.5L284.105 669L285.413 659L289.337 662L285.849 649.5L299.365 637.5L294.569 636.5L290.645 629.5L295.877 600V588Z" fill="white"/>
<path d="M266.229 435L257.946 448L275.821 462L271.461 500.5L260.126 516L243.122 517L224.81 505.5L203.447 502.5L199.959 495.5H211.295L219.143 481.5L216.091 467.5H220.886L222.63 479.5H231.786L237.018 495.5H241.378V473L239.198 462L241.378 435L255.33 418.5L267.537 420L266.229 435Z" fill="white"/>
<path d="M16.843 493.5L-11.4964 479L-13.2403 510L30.3587 530.5L60.006 522L61.75 530.5L73.0857 526.5L70.4698 515.5L86.1655 504.5L60.006 487L40.8225 485L36.8986 490L40.8225 492.5L39.0785 495.5L44.3104 498L42.5664 504.5L45.6184 506.5L40.8225 512L30.3587 502.5L28.6147 504.5L32.5386 508.5L23.3828 512L12.9191 501L16.843 493.5Z" fill="white"/>
<path d="M293.261 294.5L286.285 301.5V318L281.053 330L290.209 339L301.109 334.5L306.777 320L305.033 304L293.261 294.5Z" fill="white"/>
<path d="M134.56 291.5L128.893 278.5L138.92 275.5L146.332 280.5L151.128 303.5L134.56 291.5Z" fill="white"/>
<path d="M153.308 334.5L164.208 335.5L162.028 348.5L157.668 352L153.308 347V334.5Z" fill="white"/>
<path d="M209.551 341.5V360.5H203.883L205.627 369.5L216.091 364.5L213.911 353L220.886 348.5L237.018 363L239.198 351.5L246.61 347V340H239.198L235.274 344.5H227.862L225.682 340L209.551 341.5Z" fill="white"/>
<path d="M246.174 220.5L230.042 236.5V247.5H238.326L236.582 236.5L248.79 227.5L253.15 218H248.79V223L246.174 220.5Z" fill="white"/>
<path d="M147.64 269L150.256 257.5H156.796L159.848 261L155.488 271L147.64 269Z" fill="white"/>
<path d="M125.732 785L134.124 773L96.3567 746.6L98.4549 730.5L76.5737 734.5L63.93 710.6H41.8034L48.0981 681.8L41.8034 653H14.5268L27.116 701L10.3304 684.2L-0.160628 697L6.76072 720.4L-4.95652 727.4L-28.5 752.5V776L7.93244 799L74.3937 794H92.7053L98.4549 768.2L125.732 785Z" fill="white"/>
<path d="M79.1896 566.8L85.4842 552.4L99.3269 537L112.407 569.5L128.538 552.4L153.39 566.8L160.802 598L189.577 585L197.425 634L167.314 650.8L150.529 634L120.69 638.5L106.466 605.2L87.5824 607.6L79.1896 598L81.2878 588.4L79.1896 566.8Z" fill="white"/>
<path d="M37.3345 69V116.552L66.7983 126L79.1896 96.3978L66.7983 69H37.3345Z" fill="white"/>
<path fill-rule="evenodd" clip-rule="evenodd" d="M208.568 532.151L192.873 589.205L192.848 589.254C190.453 593.92 186.817 601.043 183.692 607.25C182.13 610.354 180.697 613.227 179.61 615.448C178.514 617.689 177.793 619.225 177.633 619.686C177.532 619.974 177.172 621.274 176.608 623.376C176.047 625.462 175.294 628.309 174.413 631.66C172.65 638.362 170.377 647.081 168.118 655.768C166.438 662.226 164.765 668.671 163.315 674.257C160.865 683.692 159.051 690.681 158.913 691.158C158.84 691.408 158.513 692.231 158.028 693.414C157.535 694.618 156.861 696.237 156.074 698.113C154.499 701.867 152.469 706.654 150.526 711.219C148.953 714.916 147.437 718.467 146.265 721.206L136.721 747.6V790H135.85V747.4L145.471 720.794L145.477 720.78C146.597 718.163 148.032 714.803 149.53 711.282L131.913 704.024L124.12 706.51L108.669 704.046L105.744 711.241L93.9589 732.5H100.412L103.551 740.223L116.577 757.169L115.924 757.831L102.815 740.777L99.857 733.5H92.372L104.978 710.759L107.788 703.847L88.9087 698.79L83.1296 703.766L80.9752 732.948L93.5831 781.858L92.7478 782.142L80.0933 733.052L82.2945 703.234L87.8014 698.493L69.4366 693.574L62.6061 708.276L50.6198 725.476L61.753 739.239L65.7842 753.122L55.29 766.173L57.0116 784.948L56.1453 785.052L54.3824 765.827L64.7951 752.878L60.9863 739.761L49.4704 725.524L61.8754 707.724L68.3423 693.805L63.2315 695.481L62.9922 694.519L69.1987 692.484L108.49 703.008L124.061 705.49L131.947 702.976L149.915 710.378C151.805 705.936 153.761 701.32 155.289 697.679C156.076 695.804 156.749 694.188 157.24 692.989C157.74 691.768 158.035 691.019 158.086 690.842C158.22 690.38 160.009 683.489 162.435 674.147C163.894 668.524 165.584 662.014 167.283 655.482C169.543 646.794 171.816 638.075 173.579 631.371C174.46 628.019 175.214 625.171 175.775 623.081C176.332 621.008 176.707 619.651 176.824 619.314C177.012 618.775 177.772 617.165 178.851 614.958C179.94 612.732 181.375 609.855 182.938 606.75C186.053 600.562 189.676 593.463 192.073 588.795L207.738 531.849L208.568 532.151Z" fill="#7F7F7F"/>
<path fill-rule="evenodd" clip-rule="evenodd" d="M108.402 470.904L113.657 501.571L110.193 509.524L116.59 528.126L120.835 530.292L118.517 534.017L123.731 543.493L120.068 550.5H135.281L138.056 558.996L136.033 565.5H139.201L143.296 578.035L141.439 582.061L147.377 586.057L166.962 596.549L194.928 611.86L204.251 595.321L206.45 577.646L214.272 573.95L227.783 581.963L226.945 590.855L237.919 587.948L249.415 602.16L248.777 602.84L237.623 589.052L225.948 592.145L226.853 582.537L214.23 575.051L207.242 578.354L205.086 595.679L195.767 612.212L199.877 613.628V620.293L207.066 628.545L218.269 631.513L218.073 632.487L206.627 629.455L203.58 625.957V636H202.709V624.957L199.006 620.707V614.372L194.929 612.968L166.591 597.453L166.587 597.451L146.972 586.943L141.031 582.945L139.214 586.887L135.383 588.841L133.607 606.169L129.576 604.626L123.726 622.375L126.349 625.386L125.15 628.597L142.907 631.509L172.082 640.507L188.305 642.52L193.053 647.475L206.878 645.492L224.384 651.018L224.153 651.982L206.814 646.508L192.764 648.525L187.929 643.48L171.921 641.493L142.732 632.491L125.377 629.645L181.036 734.648L197.044 747.221L199.065 740.726L206.045 732.713L192.875 727.515L182.973 729.582L180.284 712.087L181.142 711.913L183.679 728.418L192.943 726.485L206.845 731.971L215.192 728.617L217.694 717.129L214.812 713.27L223.672 709.71L221.177 703.504L233.889 670.796L234.684 671.204L222.134 703.496L224.865 710.29L216.303 713.73L218.648 716.871L215.923 729.383L207.084 732.934L205.484 734.771L212.823 737.432L215.377 734.5H221.406L228.754 720.111L248.915 709.545L249.277 710.455L229.366 720.889L221.905 735.5H215.738L213.065 738.568L204.79 735.568L199.819 741.274L197.484 748.779L180.39 735.352L174.067 723.425L160.858 718.935L157.288 713.812L157.968 713.188L161.367 718.065L173.393 722.153L124.211 629.368L119.505 626.217L118.237 629.614L108.593 626.091L98.799 643.2L97.4718 649.802L90.4453 655.347L88.5951 659.064L74.2228 655.596L72.2416 669.158L62.9914 690.064L63.9716 694.886L63.1233 695.114L60.0998 680.239L48.8615 665.904L45.1269 675.431L39.3476 676.962L35.8413 680.093L39.679 685.967L33.9667 697.064L35.7201 703.606L20.0456 726.098L25.1168 743.077L41.5619 747.548L48.185 755.658L47.5495 756.342L41.1059 748.452L24.4485 743.923L19.4591 727.217L16.0305 734.214L9.15007 754.454L19.9302 775.244L19.1817 775.756L8.18382 754.546L15.2413 733.786L19.1937 725.719L26.7256 714.912L8.63949 704.048L-2.50124 708.967L-2.81395 708.033L8.6944 702.952L27.28 714.116L34.752 703.394L33.0209 696.936L38.6332 686.033L34.9363 680.375L28.2345 675.566L23.5246 678.024L13.3426 675.483L3.44024 671.694V682.5H2.56912V671.5H-2.78947L-5.51255 669.416L-5.02935 668.584L-2.52571 670.5H3.07536L13.5735 674.517L23.4273 676.976L28.2997 674.434L35.2089 679.391L38.9645 676.038L44.5099 674.569L48.2597 665.003L45.8085 658.906L42.9452 657.81L44.3268 653.581L41.9872 650H38.8939L34.8403 641.21L33.1303 636.303L30.5481 633.833L15.2003 605.643V601.393L-4.39983 595.893V590.667L-6.92608 586.8L-6.22918 586.2L-3.52871 590.333V595.108L15.4726 600.439L19.5236 594.756L20.8626 596.293L24.6118 591.989L41.2916 592.997L44.7647 592H63.6385L77.3914 598.907L82.4467 593.256L83.1607 588.368L86.6528 577.846L89.6458 565.084L81.8146 551.1L82.4608 547.423L51.1622 542.475L-11.6569 478.875L-11.0807 478.125L-1.73139 487.591L0.405972 478.371L1.24779 478.629L-1.00131 488.33L51.5413 541.525L82.6335 546.441L91.8674 493.901L92.7213 494.099L82.7384 550.9L90.1619 564.156L94.0589 558.788L96.6743 538.272L103.183 530.302V523.382L107.893 512.569L105.797 509.681V506.29L96.6499 500.29V493H97.521V499.71L106.668 505.71V509.319L108.318 511.593L112.745 501.429L107.547 471.097L108.402 470.904ZM90.2752 566.247L87.4825 578.154L84.1139 588.305L110.152 608.232V612.382L113.738 620.615L109.262 625.287L117.748 628.386L119.093 624.783L123.24 627.56L90.2752 566.247ZM124.456 627.918L125.316 625.614L122.712 622.625L129.058 603.374L132.867 604.831L134.576 588.159L138.585 586.113L142.343 577.965L138.597 566.5H134.797L137.129 559.004L134.677 551.5H118.53L122.708 543.507L117.468 533.983L119.505 530.708L115.91 528.874L109.67 510.726L104.054 523.618V530.698L97.4967 538.728L94.8853 559.212L90.6518 565.044L124.456 627.918ZM83.9014 589.344L109.281 608.768V612.618L112.664 620.385L108.076 625.173L97.9853 642.8L96.6992 649.198L89.7878 654.653L88.1535 657.936L74.367 654.609L83.9014 589.344ZM82.203 594.924L77.5792 600.093L63.4563 593H44.872L41.3762 594.003L24.9535 593.011L20.8626 597.707L19.5883 596.244L16.0715 601.178V605.357L31.2129 633.167L33.8573 635.697L35.6319 640.79L39.4183 649H42.4228L45.31 653.419L44.0782 657.19L46.4415 658.094L49.1062 664.722L60.8972 679.761L62.6838 688.551L71.4045 668.842L82.203 594.924Z" fill="#7F7F7F"/>
<path fill-rule="evenodd" clip-rule="evenodd" d="M313.246 601.151L313.871 601.849L298.673 619.793L290.909 637.618V654.5H298.557L302.095 661.1L309.369 664.538L309.037 665.462L301.502 661.901L298.071 655.5H290.909V672.5H290.038V637.382L297.955 619.207L313.246 601.151Z" fill="#7F7F7F"/>
<path fill-rule="evenodd" clip-rule="evenodd" d="M30.8958 466.368L34.8159 449.868L35.6563 450.132L31.7362 466.632L30.8958 466.368Z" fill="#7F7F7F"/>
<path fill-rule="evenodd" clip-rule="evenodd" d="M-9.68605 248.248L9.94974 286.818L11.6842 296.275L18.1863 305.232L34.2608 346.127L38.4889 348.439L54.1588 338.582L83.7542 311.603L113.379 286.597L113.895 287.403L84.2833 312.397L54.6425 339.418L36.8294 350.623L49.0774 373.179L79.9597 406.134L79.3666 406.866L48.4568 373.882L28.2271 356.034L22.7627 359.471L13.7033 361.947L6.44182 372.244L5.18247 376.581V381.172L2.23026 385.529L5.16481 390.823L6.4499 401.149L22.7605 409.033L60.6561 424.033L79.8358 433.541L79.4904 434.459L60.341 424.967L22.4492 409.967L5.65728 401.851L4.32902 391.177L1.16574 385.471L4.31135 380.828V376.419L5.66536 371.756L12.6898 361.795L4.6933 359.5H-10.0621V358.5H4.80053L13.4606 360.985L22.447 358.529L33.351 351.67L27.0711 337.371L-10.2605 315.445L-9.86372 314.555L27.7209 336.629L34.1154 351.19L37.5468 349.031L33.598 346.873L17.4411 305.768L10.8764 296.725L9.12639 287.182L-10.4382 248.752L-9.68605 248.248ZM29.0616 355.509L47.0958 371.42L36.0643 351.104L29.0616 355.509Z" fill="#7F7F7F"/>
<path fill-rule="evenodd" clip-rule="evenodd" d="M292.189 699.943L294.426 745.639L280.826 741.996L263.002 740.499L263.065 739.501L280.957 741.004L293.491 744.361L291.372 701.057L261.341 704.997L261.242 704.003L292.189 699.943Z" fill="#7F7F7F"/>
<path fill-rule="evenodd" clip-rule="evenodd" d="M72.8471 27.0767L50.6976 -1.83966L52.0059 -3.16034L74.2835 25.9233L100.239 80.5253L130.969 55.0635L125.434 22.4527L131.277 -0.5H162.305L189.075 25.6965L244.732 67.126L296.696 95.72L312.83 67.452L314.287 68.548L297.318 98.28L243.878 68.874L188.031 27.3035L161.663 1.5H132.583L127.225 22.5473L132.892 55.9365L101.08 82.2949L168.019 223.114L174.62 248.688L188.059 234.664L209.983 222.337L224.619 234.556L236.478 236.987L250.817 234.566L255.152 228.596L265.362 226.048L287.16 214.037L313.415 209.014L313.702 210.986L287.69 215.963L265.932 227.952L256.107 230.404L251.73 236.434L236.451 239.013L223.918 236.444L209.807 224.663L189.047 236.336L175.317 250.664L189.222 274.849L207.175 293.949L215.974 326.779L220.326 360.748L231.405 394.5H243.869V409.76L256.272 437.744L317.855 471.598L317.102 473.402L254.987 439.256L242.127 410.24V396.5H231.868L237.336 427.399V472.587L231.712 509.331L243.845 535.197L249.951 598.044L254.945 584.285L269.317 575.52L295.789 573.029L316.919 552.733L318.038 554.267L296.483 574.971L269.817 577.48L256.313 585.715L250.349 602.146L269.562 799.889L267.83 800.111L242.151 535.803L229.892 509.669L235.593 472.413V451.658L157.805 498.76L115.859 575H-24V573H114.899L156.58 497.24L235.593 449.397V427.6L230.031 396.163L214.885 386.987L173.849 384.481L150.426 362.482L146.013 370.31L130.654 377.363L98.1573 410.688L71.6021 449.168L-13.8049 546.211L-15.0305 544.789L70.3017 447.832L96.8848 409.312L129.722 375.637L144.852 368.69L148.964 361.395L139.104 355.736L100.301 257.138L67.3355 227.76L59.5898 219.363L25.6919 204.396L-12.7135 175.839L-11.7663 174.161L26.4867 202.604L59.9501 217.379L70.2929 209.305L85.9282 177.397L100.371 160.315L100.38 160.304L114.416 143.184L125.132 137.067L72.8471 27.0767ZM125.967 138.824L115.471 144.816L101.635 161.691L87.3359 178.603L71.7778 210.354L69.9993 220.271L97.7059 228.522L139.961 237.023L157.456 242.546L172.856 248.892L166.402 223.886L125.967 138.824ZM173.612 251.329L156.93 244.454L139.579 238.977L97.3362 230.478L69.6475 222.232L68.8656 226.592L101.71 255.862L140.437 354.264L150.491 360.035L167.145 362.977L183.893 357.061L194.903 351.5H206.641L218.357 359.121L214.27 327.221L205.647 295.051L187.884 276.151L173.612 251.329ZM218.774 361.691L206.181 353.5H195.269L184.502 358.939L167.276 365.023L153.245 362.545L174.51 382.519L215.359 385.013L229.177 393.385L218.774 361.691ZM67.3649 225.041L61.4491 218.627L69.6656 212.213L67.3649 225.041Z" fill="#7F7F7F"/>
<path fill-rule="evenodd" clip-rule="evenodd" d="M221.174 523.658L231.984 513.234L233.105 514.766L222.137 525.342L208.107 533.394L207.328 531.606L221.174 523.658Z" fill="#7F7F7F"/>
<path fill-rule="evenodd" clip-rule="evenodd" d="M300.056 521.207L294.957 515.354L295.573 514.646L300.927 520.793V541H300.056V521.207Z" fill="#7F7F7F"/>
<path fill-rule="evenodd" clip-rule="evenodd" d="M274.769 140.186L270.034 166.129L274.752 173.269L281.763 199.926V217.5H280.892V200.074L273.964 173.731L269.797 167.426L265.2 192.613L258.623 222.309L253.42 226.291L249.59 257.798L266.451 259.491L294.575 246.376L297.573 252.11L290.795 258.593L280.363 275.31L274.85 282.612L278.011 293.5H262.499L257.397 315.953L271.049 349.746L277.808 344.269L276.302 332.659L280.958 322.732L296.691 298.15L322.434 274.609L322.977 275.391L297.324 298.85L281.819 323.076L290.774 350H301.247L308.775 377.45L304.869 418.303L332.147 447.132L331.557 447.868L303.955 418.697L307.889 377.55L300.608 351H290.174L281.26 324.199L277.206 332.841L278.748 344.731L271.404 350.682L284.853 390.026L270.15 423.285L334.231 461.556L333.829 462.444L268.983 423.715L283.899 389.974L270.473 350.697L257.051 317.474L252.107 339.228L245.622 348.658L246.92 369.52L243.428 395.576L242.567 395.424L246.044 369.48L244.767 348.944L224.026 345.871L227.361 357.062L214.671 380.67L211.145 412.544L183.298 409.499L157.234 408.518L159.391 436.74L132.913 458.523L123.775 457.025L98.7707 479.182L72.8028 445.33L73.4566 444.67L98.8848 477.818L123.534 455.975L132.69 457.477L158.479 436.26L156.28 407.482L183.341 408.5L183.354 408.501L183.368 408.502L210.388 411.456L213.831 380.33L226.403 356.938L223.063 345.729L218.143 345H198.374L182.099 323.792L176.828 313.132L167.512 323.361L167.506 323.367L155.846 335.76L151.085 360.607L150.234 360.393L155.054 335.24L166.606 322.961L150.262 301.237L147.224 287.286L132.541 273.901L132.53 273.892L101.594 247.382L89.6328 234.159L91.0007 227.879L91.8458 228.121L90.6002 233.841L102.159 246.618L132.95 273.003L196.483 274.502L203.884 278H214.394L235.628 295.909L244.775 290.182L252.611 225.709L257.862 221.691L264.351 192.387L273.947 139.814L296.634 96.7413L297.441 97.0428L292.667 160.82L313.005 185.658L312.37 186.342L291.765 161.18L296.413 99.0939L274.769 140.186ZM235.212 296.799L214.108 279H203.711L196.303 275.498L134.084 274.03L147.86 286.589L173.631 304.641L177.034 311.522L187.057 300.516L214.278 297.996L236.733 303.346L235.212 296.799ZM236.673 304.353L214.224 299.004L187.436 301.484L177.477 312.419L182.812 323.208L198.768 344H217.911L220.837 337.761L236.673 304.353ZM218.855 344.097L222.748 344.674L221.131 339.245L218.855 344.097ZM223.712 344.817L244.987 347.968L251.311 338.772L261.826 292.5H276.803L273.866 282.388L279.678 274.69L290.152 257.907L296.442 251.89L294.212 247.624L266.585 260.509L249.47 258.789L245.577 290.818L236.102 296.751L237.801 304.064L221.694 338.046L223.712 344.817ZM176.385 312.235L172.985 305.359L148.291 288.062L151.057 300.763L167.241 322.275L176.385 312.235Z" fill="#7F7F7F"/>
<path fill-rule="evenodd" clip-rule="evenodd" d="M-9.97355 92.3022L-9.27954 91.6978L9.86807 120.672L39.0416 154.662L69.9727 196.17L81.7121 211.144L92.4587 222H100.662L124.267 234.043L123.913 234.957L100.478 223H92.13L81.0986 211.856L69.3142 196.825L38.3995 155.338L9.20806 121.328L-9.97355 92.3022Z" fill="#7F7F7F"/>
<path fill-rule="evenodd" clip-rule="evenodd" d="M162.846 -1.59806L164.631 8.6437L158.112 17.1966L155.624 14.8165L148.924 33.0828L150.641 59.2006L204.311 95.1814L206.399 74.0909L201.786 63.5H205.239L209.895 49.4084V41.2169L213.9 38.4583L207.74 33.272L206.42 18.6245L202.089 6.69231L202.893 6.30769L207.273 18.3755L208.566 32.7279L215.473 38.5417L210.766 41.7831V49.5916L205.84 64.5H203.196L207.294 73.9091L205.104 96.0283V121.444L208.584 138.92L210.762 164.919L215.129 186.477L210.762 223.068L209.899 222.932L214.244 186.523L209.9 165.081L207.722 139.08L204.233 121.556V96.287L149.807 59.7994L148.039 32.9172L155.277 13.1835L158.016 15.8034L163.692 8.3563L161.992 -1.40194L162.846 -1.59806Z" fill="#7F7F7F"/>
<path fill-rule="evenodd" clip-rule="evenodd" d="M95.5788 -4.42059L126.361 18.2954L124.395 24.5H119.603L111.911 48.5379L115.983 70.8745L89.0959 56.5061L99.6256 50.7251L97.0197 38.7593L106.521 32.3143L94.96 7.73757L95.7265 7.26243L107.686 32.6857L98.0224 39.2407L100.643 51.2749L91.1372 56.4939L114.775 69.1255L111.007 48.4621L118.995 23.5H123.785L125.304 18.7046L95.1077 -3.57941L95.5788 -4.42059Z" fill="#7F7F7F"/>
<path fill-rule="evenodd" clip-rule="evenodd" d="M156.824 115.265C147.092 97.4246 127.469 61.4694 126.777 60.2774L127.501 59.7226C128.199 60.9236 147.612 96.4946 157.393 114.424L182.763 106.892L191.151 142.369L190.31 142.631L182.148 108.108L156.993 115.576L156.824 115.265Z" fill="#7F7F7F"/>
<path fill-rule="evenodd" clip-rule="evenodd" d="M206.034 81.2506L206.788 80.7494L233.633 133.95L246.544 131.481L260.605 139.047L260.235 139.953L246.42 132.519L234.1 134.875L248.308 163.031L236.544 181.538L243.815 196.76L243.051 197.24L235.514 181.462L247.27 162.969L206.034 81.2506Z" fill="#7F7F7F"/>
<path fill-rule="evenodd" clip-rule="evenodd" d="M213.38 10.9345V-4.5H212.509V11.0655L214.302 18.7838L237.621 40.8569L236.577 42.6551L232.713 46.1053L233.247 46.8947L235.899 44.5275L231.269 57.8143L232.078 58.1857L237.288 43.234L238.297 41.4964L239.308 42.4539L266.242 50.9314L284.168 83.0536L305.718 78.415V68.3958L296.4 70.4333L290.385 54.1567L244.035 21.7259L240.854 35.2909L238.107 40.0206L215.071 18.2162L213.38 10.9345ZM238.782 40.66L239.719 41.5461L266.795 50.0686L284.584 81.9464L304.847 77.585V69.6042L295.872 71.5667L289.692 54.8433L244.574 23.2741L241.658 35.7091L238.782 40.66Z" fill="#7F7F7F"/>
<path fill-rule="evenodd" clip-rule="evenodd" d="M292.952 23.6166L281.689 4.22265L280.965 4.77735L292.298 24.2926L286.806 29.9665L297.007 42.695V54H297.878V42.305L288.044 30.0335L298.385 19.3496L304.514 22.8676L312.29 42.7052L313.085 42.2948L305.181 22.1324L299.08 18.6309L309.494 7.87165L308.912 7.12835L292.952 23.6166Z" fill="#7F7F7F"/>
<path fill-rule="evenodd" clip-rule="evenodd" d="M105.924 231.854L106.54 231.146L111.679 237.046L150.801 247.525L161.504 253.156L165.442 279.777L174.431 291.57L192.065 298.482L214.693 292.987L240.091 300.025L258.422 309.544L258.063 310.456L239.807 300.975L214.68 294.013L192.01 299.518L173.928 292.43L164.624 280.223L160.722 253.844L150.518 248.475L111.239 237.954L105.924 231.854Z" fill="#7F7F7F"/>
<path fill-rule="evenodd" clip-rule="evenodd" d="M60.0629 16.7427V-4.5H60.9341V17.2573L51.7065 24.8236L46.5275 39.1912L45.7226 38.8088L50.997 24.1764L60.0629 16.7427Z" fill="#7F7F7F"/>
<path fill-rule="evenodd" clip-rule="evenodd" d="M6.81854 38.9916L-8.7916 37.4983L-8.71925 36.5017L7.03088 38.0084L34.1314 51.2684L20.6285 76.2694L29.0231 80.3994L36.7128 70.5912L54.2138 61.0484L54.5876 61.9516L46.3404 66.4486L49.2947 71.3237L52.4276 69.076L52.8893 69.924L49.0532 72.6763L45.5428 66.8835L37.2438 71.4088L33.6443 76L37.2054 80.5422L45.7749 82.5097L45.6041 83.4903L36.7512 81.4578L33.0583 76.7474L29.4919 81.2963L26.6725 86.8447L186.181 208.584L185.698 209.416L25.878 87.4391L8.44637 78.4343L-11.1908 61.9032L-10.6756 61.0968L8.88752 77.5657L25.9106 86.3594L28.5137 81.2367L19.3545 76.7306L32.8563 51.7316L6.81854 38.9916Z" fill="#7F7F7F"/>
<path fill-rule="evenodd" clip-rule="evenodd" d="M141.137 119.595C142.454 117.981 148 111.181 148 105.206C148 100.122 143.523 96 138 96C132.477 96 128 100.122 128 105.206C128 110.257 130.972 114.576 133.159 117.754C133.663 118.486 134.125 119.158 134.5 119.764C135.444 121.291 136.276 123.1 136.892 124.584C137.265 125.482 138.654 125.455 138.972 124.536C139.623 122.647 140.458 120.433 141 119.764C141.039 119.716 141.085 119.66 141.137 119.595ZM138 109C139.657 109 141 107.657 141 106C141 104.343 139.657 103 138 103C136.343 103 135 104.343 135 106C135 107.657 136.343 109 138 109Z" fill="#112B3C"/>
<path fill-rule="evenodd" clip-rule="evenodd" d="M103.137 56.5949C104.454 54.9806 110 48.1808 110 42.2063C110 37.1218 105.523 33 100 33C94.4772 33 90 37.1218 90 42.2063C90 47.2569 92.9724 51.5762 95.1594 54.7541C95.6633 55.4863 96.1255 56.1579 96.5 56.7639C97.4438 58.291 98.2762 60.0995 98.8922 61.5838C99.2652 62.4824 100.654 62.4554 100.972 61.5357C101.623 59.647 102.458 57.4334 103 56.7639C103.039 56.7162 103.085 56.6597 103.137 56.5949ZM100 46C101.657 46 103 44.6569 103 43C103 41.3431 101.657 40 100 40C98.3431 40 97 41.3431 97 43C97 44.6569 98.3431 46 100 46Z" fill="#112B3C"/>
<path fill-rule="evenodd" clip-rule="evenodd" d="M45.1375 199.595C46.4542 197.981 52 191.181 52 185.206C52 180.122 47.5228 176 42 176C36.4772 176 32 180.122 32 185.206C32 190.257 34.9724 194.576 37.1594 197.754C37.6633 198.486 38.1255 199.158 38.5 199.764C39.4438 201.291 40.2762 203.1 40.8922 204.584C41.2652 205.482 42.6545 205.455 42.9718 204.536C43.6234 202.647 44.4584 200.433 45 199.764C45.0386 199.716 45.0846 199.66 45.1375 199.595ZM42 189C43.6569 189 45 187.657 45 186C45 184.343 43.6569 183 42 183C40.3431 183 39 184.343 39 186C39 187.657 40.3431 189 42 189Z" fill="#112B3C"/>
</g>
<circle cx="273" cy="119" r="18" fill="#112B3C"/>
<path d="M264 128L276.972 121.972L283 109L270.028 115.028L264 128ZM273.5 116.6C274.554 116.6 275.4 117.446 275.4 118.5C275.4 119.554 274.554 120.4 273.5 120.4C272.446 120.4 271.6 119.554 271.6 118.5C271.6 117.446 272.446 116.6 273.5 116.6Z" fill="white"/>
<circle cx="273" cy="158" r="18" fill="#112B3C"/>
<path d="M273 154C270.79 154 269 155.79 269 158C269 160.21 270.79 162 273 162C275.21 162 277 160.21 277 158C277 155.79 275.21 154 273 154ZM281.94 157C281.48 152.83 278.17 149.52 274 149.06V147H272V149.06C267.83 149.52 264.52 152.83 264.06 157H262V159H264.06C264.52 163.17 267.83 166.48 272 166.94V169H274V166.94C278.17 166.48 281.48 163.17 281.94 159H284V157H281.94ZM273 165C269.13 165 266 161.87 266 158C266 154.13 269.13 151 273 151C276.87 151 280 154.13 280 158C280 161.87 276.87 165 273 165Z" fill="white"/>
<circle cx="273" cy="74" r="18" fill="#112B3C"/>
<path d="M272.99 80.54L265.62 74.81L264 76.07L273 83.07L282 76.07L280.37 74.8L272.99 80.54ZM273 78L280.36 72.27L282 71L273 64L264 71L265.63 72.27L273 78ZM273 66.53L278.74 71L273 75.47L267.26 71L273 66.53Z" fill="white"/>
<path d="M70 150.255L158 141L123.559 183.104L116.301 184L70 150.255Z" fill="url(#paint0_linear_122_6262)"/>
<circle cx="120" cy="181.427" r="7" fill="#112B3C" stroke="white" stroke-width="2"/>
</g>
<defs>
<linearGradient id="paint0_linear_122_6262" x1="114.869" y1="152.484" x2="122.348" y2="203.243" gradientUnits="userSpaceOnUse">
<stop stop-color="#B3B3B3" stop-opacity="0"/>
<stop offset="1" stop-color="#4A4949"/>
</linearGradient>
<clipPath id="clip0_122_6262">
<rect width="307" height="232" fill="white"/>
</clipPath>
</defs>
</svg>
